<?xml version="1.0" encoding="UTF-8"?>
<!--Generator: Apple Native CoreSVG 341-->
<!DOCTYPE svg
PUBLIC "-//W3C//DTD SVG 1.1//EN"
       "http://www.w3.org/Graphics/SVG/1.1/DTD/svg11.dtd">
<svg version="1.1" xmlns="http://www.w3.org/2000/svg" xmlns:xlink="http://www.w3.org/1999/xlink" viewBox="0 0 636.75 714.875">
 <g>
  <rect height="714.875" opacity="0" width="636.75" x="0" y="0"/>
  <path d="M34.5 560.812L284 705.312C306 718.062 331 718.062 352.75 705.312L602.5 560.812C624 548.312 636.75 526.562 636.75 501.312L636.75 213.062C636.75 188.062 624 166.062 602.5 153.562L352.75 9.5625C331-3.1875 306-3.1875 284 9.5625L34.5 153.562C12.75 166.062 0 188.062 0 213.062L0 501.312C0 526.562 12.75 548.312 34.5 560.812ZM44.25 494.562L44.25 219.812C44.25 206.812 51 195.562 62.25 188.812L300.5 51.0625C311.75 44.5625 325 44.5625 336.25 51.0625L574.5 188.812C586 195.562 592.5 206.812 592.5 219.812L592.5 494.562C592.5 507.562 586 519.062 574.5 525.562L336.5 663.562C325.25 670.062 311.75 670.062 300.25 663.562L62.25 525.562C51 519.062 44.25 507.562 44.25 494.562Z" fill="white" fill-opacity="0.85"/>
 </g>
</svg>
